HIERARCHY
ROOT joint_Root
{
	OFFSET 0.0 0.0 0.0
	CHANNELS 6 Xposition Yposition Zposition Zrotation Xrotation Yrotation 
	JOINT Hips
	{
		OFFSET 4.5925 91.4895 -427.239
		CHANNELS 6 Xposition Yposition Zposition Zrotation Xrotation Yrotation 
		JOINT Spine
		{
			OFFSET 15.7357 0.0 0.0
			CHANNELS 6 Xposition Yposition Zposition Zrotation Xrotation Yrotation 
			JOINT Chest
			{
				OFFSET 8.98455 -0.406207 0.0
				CHANNELS 6 Xposition Yposition Zposition Zrotation Xrotation Yrotation 
				JOINT Neck
				{
					OFFSET 16.3773 0.0 0.0
					CHANNELS 6 Xposition Yposition Zposition Zrotation Xrotation Yrotation 
					JOINT Head
					{
						OFFSET 6.45672 0.0 0.0
						CHANNELS 6 Xposition Yposition Zposition Zrotation Xrotation Yrotation 
						End Site
						{
							OFFSET 0.0 0.0 0.0
						}
					}
				}
				JOINT Shoulder_L
				{
					OFFSET 12.9942 -0.242716 4.98039
					CHANNELS 6 Xposition Yposition Zposition Zrotation Xrotation Yrotation 
					JOINT UpperArm_L
					{
						OFFSET 5.34809 0.0 0.0
						CHANNELS 6 Xposition Yposition Zposition Zrotation Xrotation Yrotation 
						JOINT LowerArm_L
						{
							OFFSET 24.3286 1.87007e-05 0.0
							CHANNELS 6 Xposition Yposition Zposition Zrotation Xrotation Yrotation 
							JOINT Hand_L
							{
								OFFSET 22.2916 0.0 0.0
								CHANNELS 6 Xposition Yposition Zposition Zrotation Xrotation Yrotation 
								End Site
								{
									OFFSET 0.0 0.0 0.0
								}
							}
						}
					}
				}
				JOINT Shoulder_R
				{
					OFFSET 12.9945 -0.242716 -4.98039
					CHANNELS 6 Xposition Yposition Zposition Zrotation Xrotation Yrotation 
					JOINT UpperArm_R
					{
						OFFSET -5.34813 0.0 0.0
						CHANNELS 6 Xposition Yposition Zposition Zrotation Xrotation Yrotation 
						JOINT LowerArm_R
						{
							OFFSET -24.3289 0.000322201 0.0
							CHANNELS 6 Xposition Yposition Zposition Zrotation Xrotation Yrotation 
							JOINT Hand_R
							{
								OFFSET -22.2915 -0.000108084 0.0
								CHANNELS 6 Xposition Yposition Zposition Zrotation Xrotation Yrotation 
								End Site
								{
									OFFSET 0.0 0.0 0.0
								}
							}
						}
					}
				}
			}
		}
		JOINT UpperLeg_L
		{
			OFFSET -2.19248 -6.46944 0.0
			CHANNELS 6 Xposition Yposition Zposition Zrotation Xrotation Yrotation 
			JOINT LowerLeg_L
			{
				OFFSET 39.0811 0.0 -1.23785e-05
				CHANNELS 6 Xposition Yposition Zposition Zrotation Xrotation Yrotation 
				JOINT Foot_L
				{
					OFFSET 40.9854 0.0 -1.26872e-05
					CHANNELS 6 Xposition Yposition Zposition Zrotation Xrotation Yrotation 
					JOINT Toes_L
					{
						OFFSET 11.7543 0.0 0.0
						CHANNELS 6 Xposition Yposition Zposition Zrotation Xrotation Yrotation 
						End Site
						{
							OFFSET 0.0 0.0 0.0
						}
					}
				}
			}
		}
		JOINT UpperLeg_R
		{
			OFFSET -2.19251 6.46944 0.0
			CHANNELS 6 Xposition Yposition Zposition Zrotation Xrotation Yrotation 
			JOINT LowerLeg_R
			{
				OFFSET -39.0811 -0.00228153 -0.0401928
				CHANNELS 6 Xposition Yposition Zposition Zrotation Xrotation Yrotation 
				JOINT Foot_R
				{
					OFFSET -40.9854 0.0 0.0
					CHANNELS 6 Xposition Yposition Zposition Zrotation Xrotation Yrotation 
					JOINT Toes_R
					{
						OFFSET -11.7543 0.0 0.0
						CHANNELS 6 Xposition Yposition Zposition Zrotation Xrotation Yrotation 
						End Site
						{
							OFFSET 0.0 0.0 0.0
						}
					}
				}
			}
		}
	}
}
MOTION
Frames:	4
Frame Time:	0.0333333
0.000000 0.000000 0.000000 0.000000 0.000000 -0.000000 2.383170 90.432100 -1.931980 88.891100 -6.675280 15.295800 15.735700 0.000005 -0.000001 97.304100 80.225600 -100.322000 8.984550 -0.406207 -0.000000 11.701400 2.361120 -6.276650 16.377300 -0.000001 -0.000001 34.308600 2.536580 1.859860 6.456720 -0.000001 -0.000000 18.303200 1.472100 -10.751700 12.994200 -0.242716 4.980390 -91.314400 4.237170 -72.748700 5.348090 -0.000007 -0.000001 -61.766800 33.693000 -13.533600 24.328600 0.000019 0.000005 8.616460 25.834800 -19.173600 22.291600 -0.000001 0.000005 9.437610 5.290540 0.336110 12.994500 -0.242716 -4.980390 90.648300 -2.531090 -75.628800 -5.348130 -0.000001 -0.000004 -61.845300 -40.290000 -75.354200 -24.328900 0.000322 -0.000009 4.945000 1.772850 -70.330700 -22.291500 -0.000108 -0.000004 23.977600 5.427480 -3.852670 -2.192480 -6.469440 -0.000000 -173.959000 -16.375900 4.589020 39.081100 -0.000007 -0.000012 -0.113349 0.174973 32.935800 40.985400 -0.000006 -0.000013 2.353000 4.130200 -71.894500 11.754300 -0.000000 0.000003 -0.000176 -0.001663 -16.640500 -2.192510 6.469440 -0.000001 169.907000 21.143000 -174.261000 -39.081100 -0.002282 -0.040193 -0.206636 0.344295 31.373100 -40.985400 0.000008 0.000006 1.426430 14.990700 -69.942100 -11.754300 -0.000006 -0.000006 -0.003306 -0.044012 -18.363100
0.000000 0.000000 0.000000 0.000000 0.000000 -0.000000 2.432700 90.443100 -1.922280 88.826200 -6.901280 15.169600 15.735700 0.000005 -0.000001 97.576900 80.348500 -100.595000 8.984550 -0.406207 -0.000000 11.447700 2.427980 -6.277920 16.377300 -0.000001 -0.000001 34.385900 2.366730 1.905430 6.456720 -0.000001 -0.000000 18.575700 1.216440 -10.583700 12.994200 -0.242716 4.980390 -91.275900 4.157830 -72.924200 5.348090 -0.000007 -0.000001 -61.924300 33.593100 -13.380300 24.328600 0.000019 0.000005 8.587210 25.909900 -19.064400 22.291600 -0.000001 0.000005 9.540110 5.291160 0.318862 12.994500 -0.242716 -4.980390 90.677700 -2.669320 -75.748300 -5.348130 -0.000001 -0.000004 -61.687700 -40.096900 -75.163500 -24.328900 0.000322 -0.000009 5.078830 1.816110 -70.380200 -22.291500 -0.000108 -0.000004 23.915500 5.426570 -3.821730 -2.192480 -6.469440 -0.000000 -173.912000 -16.549300 4.516130 39.081100 -0.000007 -0.000012 -0.111816 0.172798 32.906700 40.985400 -0.000006 -0.000013 2.361730 4.066220 -71.903600 11.754300 -0.000000 0.000003 -0.000182 -0.001714 -16.642400 -2.192510 6.469440 -0.000001 169.995000 21.115400 -174.375000 -39.081100 -0.002282 -0.040193 -0.205472 0.343622 31.281400 -40.985400 0.000008 0.000006 1.421720 15.148300 -69.865200 -11.754300 -0.000006 -0.000006 -0.003421 -0.045282 -18.414800
0.000000 0.000000 0.000000 0.000000 0.000000 -0.000000 2.475310 90.447900 -1.875540 88.785100 -7.107060 15.075700 15.735700 0.000005 -0.000001 97.816200 80.471600 -100.841000 8.984550 -0.406207 -0.000000 11.194700 2.481280 -6.291510 16.377300 -0.000001 -0.000001 34.375700 2.181190 1.984510 6.456720 -0.000001 -0.000000 18.760300 0.986408 -10.473500 12.994200 -0.242716 4.980390 -91.232700 4.052300 -73.064900 5.348090 -0.000007 -0.000001 -62.034400 33.544500 -13.334500 24.328600 0.000019 0.000005 8.585390 26.036800 -18.980400 22.291600 -0.000001 0.000005 9.751790 5.292240 0.288865 12.994500 -0.242716 -4.980390 90.714900 -2.832020 -75.825700 -5.348130 -0.000001 -0.000004 -61.626200 -39.945500 -75.027400 -24.328900 0.000322 -0.000009 5.121700 1.823810 -70.456500 -22.291500 -0.000108 -0.000004 23.923600 5.424660 -3.756610 -2.192480 -6.469440 -0.000000 -173.878000 -16.706500 4.498420 39.081100 -0.000007 -0.000012 -0.109888 0.170005 32.878100 40.985400 -0.000006 -0.000013 2.362150 3.994630 -71.936900 11.754300 -0.000000 0.000003 -0.000183 -0.001716 -16.642500 -2.192510 6.469440 -0.000001 170.060000 21.063400 -174.460000 -39.081100 -0.002282 -0.040193 -0.201235 0.337360 31.227700 -40.985400 0.000008 0.000006 1.424980 15.286600 -69.830200 -11.754300 -0.000006 -0.000006 -0.003270 -0.043616 -18.347000
0.000000 0.000000 0.000000 0.000000 0.000000 -0.000000 2.519530 90.452800 -1.801810 88.734700 -7.309770 14.994600 15.735700 0.000005 -0.000001 97.964900 80.631900 -100.976000 8.984550 -0.406207 -0.000000 10.870300 2.495740 -6.258270 16.377300 -0.000001 -0.000001 34.413000 1.945330 1.974780 6.456720 -0.000001 -0.000000 18.909700 0.787560 -10.378800 12.994200 -0.242716 4.980390 -91.193200 3.955110 -73.197600 5.348090 -0.000007 -0.000001 -62.206000 33.449900 -13.203000 24.328600 0.000019 0.000005 8.582540 26.015900 -18.987600 22.291600 -0.000001 0.000005 9.757580 5.292700 0.276201 12.994500 -0.242716 -4.980390 90.752400 -3.012850 -75.971800 -5.348130 -0.000001 -0.000004 -61.538700 -39.816400 -74.867600 -24.328900 0.000322 -0.000009 5.072650 1.796600 -70.553100 -22.291500 -0.000108 -0.000004 23.878700 5.425570 -3.787560 -2.192480 -6.469440 -0.000000 -173.815000 -16.881600 4.538110 39.081100 -0.000007 -0.000012 -0.111146 0.172245 32.833500 40.985400 -0.000006 -0.000013 2.379020 3.979430 -71.994800 11.754300 -0.000000 0.000003 -0.000175 -0.001652 -16.640100 -2.192510 6.469440 -0.000001 170.105000 20.984700 -174.463000 -39.081100 -0.002282 -0.040193 -0.202655 0.340959 31.134100 -40.985400 0.000008 0.000006 1.389580 15.374300 -69.810700 -11.754300 -0.000006 -0.000006 -0.003388 -0.044915 -18.399900
